<svg id="Capa_1" xmlns="http://www.w3.org/2000/svg" viewBox="0 0 512 512"><style>.st0{fill:#ffbe00}.st1{fill:#212738}</style><path class="st0" d="M255.1 140.5l-81.8 141.4h73.2l11.9 17.2-26.6 70.2 105-134.1h-79.6l-12.6-14.4z"/><path class="st1" d="M256 27.9c4.1 0 7.5-3.4 7.5-7.5v-13c0-4.1-3.4-7.5-7.5-7.5s-7.5 3.4-7.5 7.5v13c0 4.2 3.4 7.5 7.5 7.5zM256 62.1c4.1 0 7.5-3.4 7.5-7.5v-3.4c0-4.1-3.4-7.5-7.5-7.5s-7.5 3.4-7.5 7.5v3.4c0 4.2 3.4 7.5 7.5 7.5zM256 444.4c4.1 0 7.5-3.4 7.5-7.5v-17.6c0-4.1-3.4-7.5-7.5-7.5s-7.5 3.4-7.5 7.5v17.6c0 4.1 3.4 7.5 7.5 7.5zM255.7 462.8c-4.1.2-7.4 3.6-7.2 7.8.4 11.1.4 22.8 0 33.7-.2 4.1 3.1 7.6 7.2 7.8h.3c4 0 7.3-3.2 7.5-7.2.4-11.3.4-23.4 0-34.8-.2-4.3-3.6-7.5-7.8-7.3zM129.8 52.3c3.4 5.7 6.6 11.1 9.6 16.7 1.3 2.5 3.9 4 6.6 4 1.2 0 2.4-.3 3.5-.9 3.7-1.9 5.1-6.5 3.1-10.1-3.1-5.9-6.6-11.7-9.9-17.4-1.5-2.5-3-5-4.5-7.6-2.1-3.6-6.7-4.8-10.2-2.7-3.6 2.1-4.8 6.7-2.7 10.2 1.5 2.7 3 5.2 4.5 7.8zM152.5 91.8c4.9 8 9.3 15.9 13.6 23.5l1.7 3c1.4 2.4 3.9 3.8 6.5 3.8 1.2 0 2.5-.3 3.7-1 3.6-2 4.9-6.6 2.9-10.2l-1.7-3c-4.3-7.7-8.8-15.7-13.9-24-2.2-3.5-6.8-4.6-10.3-2.5-3.5 2.2-4.6 6.8-2.5 10.4zM344.1 393.7c-2.1-3.6-6.6-4.8-10.2-2.7-3.6 2.1-4.8 6.6-2.7 10.2l7.3 12.6c1.4 2.4 3.9 3.7 6.5 3.7 1.3 0 2.6-.3 3.7-1 3.6-2.1 4.8-6.6 2.7-10.2l-7.3-12.6zM371.5 441c-2.1-3.6-6.6-4.8-10.2-2.7-3.6 2.1-4.8 6.6-2.7 10.2l15.3 26.4c1.4 2.4 3.9 3.7 6.5 3.7 1.3 0 2.6-.3 3.7-1 3.6-2.1 4.8-6.6 2.7-10.2L371.5 441zM37.3 138.4c8.5 4.4 16.9 9.4 25.8 14.7 5.3 3.2 10.8 6.4 16.3 9.6 1.2.7 2.4 1 3.7 1 2.6 0 5.1-1.4 6.5-3.8 2-3.6.8-8.2-2.8-10.2-5.4-3.1-10.8-6.3-16-9.4-8.7-5.2-17.7-10.5-26.5-15.2-3.7-1.9-8.2-.5-10.1 3.2-2 3.7-.5 8.2 3.1 10.1zM100.7 175l10.1 5.8c1.2.7 2.5 1 3.7 1 2.6 0 5.1-1.3 6.5-3.7 2.1-3.6.8-8.2-2.7-10.2l-10.1-5.8c-3.6-2.1-8.2-.8-10.2 2.7-2.1 3.6-.8 8.1 2.7 10.2zM430.3 348l-29.1-16.8c-3.6-2.1-8.2-.8-10.2 2.7-2.1 3.6-.8 8.2 2.7 10.2l29.1 16.8c1.2.7 2.5 1 3.7 1 2.6 0 5.1-1.3 6.5-3.7 2.1-3.6.8-8.2-2.7-10.2zM475 373.8l-13.5-7.8c-3.6-2.1-8.2-.8-10.2 2.7-2.1 3.6-.8 8.2 2.7 10.2l13.5 7.8c1.2.7 2.5 1 3.7 1 2.6 0 5.1-1.3 6.5-3.7 2.1-3.6.8-8.2-2.7-10.2zM17.2 248.5H7.5c-4.1 0-7.5 3.4-7.5 7.5s3.4 7.5 7.5 7.5h9.7c4.1 0 7.5-3.4 7.5-7.5s-3.3-7.5-7.5-7.5zM40.4 263.5c6-.1 12.1-.1 18.2-.1 4.1 0 7.5-3.4 7.5-7.5s-3.4-7.5-7.5-7.5c-6.1 0-12.2.1-18.2.1-4.1 0-7.5 3.4-7.4 7.6 0 4.1 3.3 7.4 7.4 7.4zM82.8 263.4c3.3 0 6.6.1 9.9.1h.1c4.1 0 7.4-3.3 7.5-7.4 0-4.1-3.3-7.5-7.4-7.6-3.3 0-6.6-.1-9.9-.1h-.1c-4.1 0-7.5 3.3-7.5 7.4-.1 4.2 3.2 7.6 7.4 7.6zM456 256.1c.1-4.1-3.2-7.5-7.4-7.6-10.5-.2-19.5-.2-29.5 0-4.1.1-7.4 3.5-7.3 7.6.1 4.1 3.4 7.3 7.5 7.3h.1c9.7-.2 18.6-.2 28.9 0 4.2.2 7.6-3.1 7.7-7.3zM504.6 248.5c-10.5-.2-21.7-.2-33.2 0-4.1.1-7.4 3.5-7.4 7.6.1 4.1 3.4 7.4 7.5 7.4h.1c11.3-.2 22.3-.2 32.7 0 4.1.1 7.5-3.2 7.6-7.4.2-4.1-3.1-7.5-7.3-7.6zM58.9 361.2c-3.6 2.6-7.5 4.6-11.5 6.7-3.5 1.9-7.2 3.8-10.7 6.1-3.4 2.3-4.4 6.9-2.1 10.4 1.4 2.2 3.8 3.3 6.2 3.3 1.4 0 2.9-.4 4.1-1.3 2.9-1.9 6-3.6 9.4-5.3 4.3-2.3 8.8-4.6 13.3-7.8 3.4-2.4 4.2-7.1 1.8-10.4-2.5-3.3-7.2-4.1-10.5-1.7zM111.2 331c-4.9 2.5-9.5 5.4-14 8.2-5.1 3.2-10.4 6.5-16.2 9.3-3.7 1.8-5.3 6.3-3.5 10 1.3 2.7 4 4.2 6.8 4.2 1.1 0 2.2-.2 3.2-.7 6.5-3.1 12.2-6.7 17.6-10.1 4.4-2.7 8.6-5.3 12.8-7.5 3.7-1.9 5.2-6.4 3.3-10.1-1.8-3.7-6.3-5.2-10-3.3zM397.4 181.8c1 0 2.1-.2 3.1-.7 6.1-2.8 11.6-6.4 16.9-9.9 5.7-3.7 11.1-7.2 17.1-9.8 3.8-1.6 5.6-6 3.9-9.8-1.6-3.8-6-5.6-9.8-3.9-7.1 3.1-13.3 7.1-19.3 11-5.1 3.3-9.9 6.5-15 8.8-3.8 1.7-5.4 6.2-3.7 9.9 1.3 2.8 4 4.4 6.8 4.4zM452.6 150c1.3 0 2.6-.3 3.7-1l18.6-10.7c3.6-2.1 4.8-6.6 2.7-10.2-2.1-3.6-6.6-4.8-10.2-2.7L448.9 136c-3.6 2.1-4.8 6.6-2.7 10.2 1.3 2.4 3.8 3.8 6.4 3.8zM152.4 434.9c-3.7-1.9-8.2-.6-10.1 3.1-5.3 10-11.5 20.3-16.9 29.3-2.1 3.5-1 8.1 2.6 10.3 1.2.7 2.5 1.1 3.9 1.1 2.5 0 5-1.3 6.4-3.6 5.5-9.2 11.8-19.7 17.3-30 1.8-3.7.4-8.2-3.2-10.2zM333.9 121.1c1.2.7 2.5 1 3.7 1 2.6 0 5.1-1.3 6.5-3.7l6.9-11.9c2.1-3.6.8-8.2-2.7-10.2s-8.2-.8-10.2 2.7l-6.9 11.9c-2.1 3.5-.9 8.1 2.7 10.2zM365.8 80.7c1-1.9 2-4 3.2-6.1 2-3.6.7-8.2-3-10.2-3.6-2-8.2-.7-10.2 3-1.2 2.2-2.4 4.5-3.4 6.6-1.8 3.7-.3 8.2 3.4 10 1.1.5 2.2.8 3.3.8 2.8.1 5.4-1.5 6.7-4.1zM384 34.3c-3.6-2-8.2-.8-10.2 2.8-2 3.5-4.1 7-5.7 9.6-2.1 3.5-1 8.1 2.6 10.3 1.2.7 2.5 1.1 3.9 1.1 2.5 0 5-1.3 6.4-3.6 1.6-2.7 3.8-6.3 5.8-9.9 2-3.7.8-8.3-2.8-10.3zM300.2 294c-3.3-2.5-8-2-10.5 1.3l-57.9 74 26.7-70.1c1.5-3.9 1-8.3-1.4-11.7-2.4-3.4-6.3-5.5-10.5-5.5h-73.3l23.6-40.7c2.1-3.6.9-8.2-2.7-10.2-3.6-2.1-8.2-.9-10.2 2.7l-25.5 44.1c-2.3 4-2.3 8.7 0 12.7s6.4 6.4 11 6.4h73.9l-30.8 81c-2.3 6 0 12.4 5.6 15.6 2 1.1 4.2 1.7 6.4 1.7 3.8 0 7.4-1.7 9.9-4.9l67.1-85.7c2.4-3.5 1.9-8.2-1.4-10.7zM341.4 220.2h-81.7l11.7-89c.8-6.1-2.7-11.7-8.5-13.7s-12 .4-15.1 5.7l-37.1 64.1c-2.1 3.6-.9 8.2 2.7 10.2 3.6 2.1 8.2.9 10.2-2.7l31.5-54.3-10.5 80.3c-.5 3.6.6 7.3 3 10 2.4 2.8 5.9 4.3 9.6 4.3h79.6l-14.1 18c-2.5 3.3-2 8 1.3 10.5 1.4 1.1 3 1.6 4.6 1.6 2.2 0 4.4-1 5.9-2.9l17-21.7c3-3.9 3.6-9 1.4-13.4-2.2-4.3-6.6-7-11.5-7z"/><path class="st1" d="M211.2 186.5l-27.4 47.2 13 7.5 28.5-49.1z"/></svg>