<svg id="Layer_1" xmlns="http://www.w3.org/2000/svg" viewBox="0 0 472.3 512"><style>.st0{fill:#ffbe00}.st1{fill:#212738}</style><path class="st0" d="M176.3 186.5c-4.5-6.3-7.9-13.2-10.3-20.5h21.5c1.5 3.1 3.2 6.1 5.2 8.9 3.2 4.5 2.1 10.8-2.4 14-1.8 1.2-3.8 1.8-5.8 1.8-3.1 0-6.2-1.5-8.2-4.2zM305.3 336.5v18.6l-28.1 8.5h-81.7L161 353.2v-18.6l19 5.8c-5.7-10-9-21.6-9-34 0-14.2 4.5-27.7 12.9-39.1l45.4-60.8c1.7-2.3 4.3-3.6 7.1-3.6s5.5 1.3 7.1 3.6l45.4 60.8c8.4 11.3 12.9 24.8 12.9 39 0 12.4-3.5 24.1-9.6 34.2l13.1-4z"/><path class="st1" d="M178.2 474.6c-.6 0-1.3-.1-2-.2-.6-.1-1.3-.3-1.9-.6-.6-.3-1.2-.6-1.7-.9-.5-.4-1.1-.8-1.5-1.2-.5-.5-.9-1-1.2-1.5-.4-.5-.7-1.1-.9-1.7-.3-.6-.4-1.2-.6-1.9-.1-.6-.2-1.3-.2-2 0-.6.1-1.3.2-1.9.1-.6.3-1.3.6-1.9.3-.6.6-1.2.9-1.7.4-.6.8-1.1 1.2-1.5.5-.5 1-.9 1.5-1.3s1.1-.7 1.7-.9c.6-.3 1.2-.4 1.9-.6 1.3-.3 2.6-.3 3.9 0 .6.1 1.3.3 1.9.6.6.3 1.2.6 1.7.9.6.4 1.1.8 1.5 1.3.5.5.9 1 1.2 1.5.4.5.7 1.1.9 1.7.3.6.4 1.2.6 1.9.1.6.2 1.3.2 1.9s-.1 1.3-.2 2c-.1.6-.3 1.3-.6 1.9-.3.6-.6 1.2-.9 1.7-.4.6-.8 1.1-1.2 1.5-.5.5-1 .9-1.5 1.2-.5.4-1.1.7-1.7.9-.6.3-1.2.4-1.9.6-.6.2-1.2.2-1.9.2zM288.3 399.5c-4.3 0-8.3-2.8-9.6-7.1-1.6-5.3 1.4-10.9 6.7-12.5L389 348.3c5.3-1.6 10.9 1.4 12.5 6.7 1.6 5.3-1.4 10.9-6.7 12.5l-103.6 31.6c-1 .2-2 .4-2.9.4z"/><path class="st1" d="M441.2 418.3c-.4-.2-37.8-11.6-37.8-11.6l34.5-10.5c12.4-3.8 22.6-12.1 28.7-23.6 6.1-11.4 7.4-24.5 3.6-36.9-3.8-12.4-12.1-22.5-23.6-28.7-11.4-6.1-24.5-7.4-36.9-3.6l-43 13.1c13.3-25.1 18.7-53.6 15.5-82.4C376 179 317.2 89 314.7 85.2c-1.9-2.9-5.1-4.6-8.6-4.5-3.4.1-6.6 1.9-8.4 4.8-.1.2-5.2 8.6-10.4 17.3-5.2-7.9-12.6-15.2-20.2-22.7-16.6-16.4-33.7-33.4-29.7-57.2 1.4-8 1.8-16.1-4.3-20.7-3.6-2.6-8.2-3-12.5-.9-12.4 6.1-30.3 44.1-35.5 55.6-4.8 10.6-14 32.5-19.3 53.9l-14-20.5c-2-3-5.5-4.6-9.2-4.3-3.6.3-6.8 2.6-8.2 5.9-2.1 4.8-52.2 117.8-39.4 175 .5 2.3 1.1 5.3 2 9.8 2.8 14.4 7.8 28.4 14.8 41.3l-48.2-14.6c-12.4-3.8-25.5-2.5-36.9 3.6-11.4 6.1-19.8 16.3-23.5 28.7-3.8 12.4-2.5 25.5 3.6 36.9 6.1 11.4 16.3 19.8 28.7 23.6l34.4 10.5s-37.3 11.4-37.8 11.6c-23.6 9.1-36.3 35.1-29 59.3 3.8 12.4 12.1 22.5 23.5 28.7 7.1 3.8 14.9 5.7 22.8 5.7 3.6 0 7.2-.4 10.7-1.2.5-.1 69.6-21 69.6-21 5.3-1.6 8.3-7.2 6.7-12.5s-7.2-8.3-12.5-6.7l-34 10.3c3.3-9.4 3.7-19.8.6-29.9-3-9.9-9-18.4-17.1-24.5L282.5 363l31.5-9.6 101.5-30.8c7.3-2.2 15-1.4 21.7 2.1 6.7 3.6 11.6 9.6 13.8 16.8 2.2 7.3 1.5 15-2.1 21.7-3.6 6.7-9.6 11.6-16.8 13.8l-215.4 65.4c-5.3 1.6-8.3 7.2-6.7 12.5 1.3 4.3 5.3 7.1 9.6 7.1 1 0 1.9-.1 2.9-.4l14.2-4.3s176 53.3 176.4 53.4c3.5.8 7.1 1.2 10.7 1.2 7.9 0 15.8-1.9 22.8-5.7 11.4-6.1 19.8-16.3 23.5-28.7 7.4-24.1-5.3-50.2-28.9-59.2zM55 491.4c-6.4 1.3-13.1.3-19-2.8-6.7-3.6-11.6-9.6-13.8-16.8-4.3-14 2.9-29 16.3-34.6 6.4-1.3 13.1-.3 18.9 2.8 6.7 3.6 11.6 9.6 13.8 16.8 4.4 14.1-2.7 29.1-16.2 34.6zm147.2-124.9l-97.9 29.8-63.1-19.2c-7.3-2.2-13.3-7.1-16.8-13.8-3.6-6.7-4.3-14.4-2.1-21.7 2.2-7.3 7.1-13.2 13.8-16.8 4.2-2.2 8.8-3.4 13.4-3.4 2.8 0 5.6.4 8.3 1.2l94.2 28.6 38.8 11.8 11.4 3.5zm33.6-12.9c-4 0-7.8-.5-11.5-1.3l-6.3-1.9c-20.3-7.6-34.9-28-34.9-51.8 0-11.6 3.6-22.6 10.5-31.9l42.9-57.5 43 57.5c6.9 9.2 10.5 20.2 10.5 31.8.1 29.9-24.8 55.1-54.2 55.1zm101.3-28.1l-23.1 7-14.7 4.5c6.8-11.3 10.8-24.5 10.8-38.4 0-16-5-31.1-14.5-43.8l-51-68.2c-1.9-2.5-4.9-4-8-4-3.2 0-6.1 1.5-8 4l-51 68.2c-9.5 12.7-14.5 27.9-14.5 43.8 0 13.9 3.7 27 10.1 38.2l-21.3-6.5-10.3-3.1c-12.6-15.7-21.2-34.4-25.1-54.2-.9-4.7-1.6-7.9-2.1-10.4-8.6-38.8 18-112.6 31.2-145.7l16.3 23.8v1c0 8.3 1.3 16.5 3.9 24.3 2.4 7.2 5.9 14.1 10.3 20.5 2 2.8 5 4.2 8.2 4.2 2 0 4-.6 5.8-1.8 4.5-3.2 5.6-9.4 2.4-14-2-2.8-3.7-5.8-5.2-8.9-3.6-7.6-5.4-15.9-5.4-24.5v-.3l-.1-3.8c.5-27.6 20.7-73.8 35.3-99.8 3.1 24.3 20.9 42 35.8 56.7 11.4 11.3 22.2 22 21.8 31.4v4.4c0 5.9-.9 11.8-2.7 17.5-1.7 5.3 1.3 10.9 6.5 12.6 1 .3 2 .5 3 .5 4.2 0 8.2-2.7 9.5-7 2.4-7.6 3.6-15.5 3.6-23.4v-1.1c2.7-4.4 7.5-12.4 11.8-19.4 16.5 27 51.4 88 55.7 126.5 3.7 32.1-5.2 63.7-25 89.2zm45.6 125.6c-3.1 10.1-2.6 20.5.6 29.9L271 446.9l97.9-29.7 30.9 9.4c-8.1 6-14 14.6-17.1 24.5zm68.3 20.7c-2.2 7.3-7.1 13.2-13.8 16.8-5.8 3.1-12.5 4.1-19 2.8-13.4-5.5-20.6-20.6-16.3-34.5 2.2-7.3 7.1-13.2 13.8-16.8 5.8-3.1 12.5-4.1 18.9-2.8 13.5 5.5 20.7 20.5 16.4 34.5z"/></svg>