<svg id="Layer_1" xmlns="http://www.w3.org/2000/svg" viewBox="0 0 512 512"><style>.st0{fill:#ffbe00}.st1{fill:#212738}</style><path class="st0" d="M500.5 434.5v29.3H282c-.5-1.8-.9-4.1-.9-6v-.3c.2-11.1 8.9-20 19.7-20.7 3.8-12 15-20.3 27.8-20.3 9.5 0 18.5 4.7 23.9 12.4 3.5-.7 7.2-.6 10.7.3 4.4-2.7 9.4-3.9 14.3-3.8 2.6-10 9.1-18.3 17.7-23.4h39c5.2 3.1 9.7 7.4 13 12.7 2.4-.6 4.8-.9 7.2-1 1.3 0 2.7 0 4 .1l-5.9-11.8h16.8c12 24.1 13.7 27.3 13.8 27.5v-.1s.2.3 1 1.9c6.1-1 11.7.3 16.4 3.2z"/><circle class="st0" cx="137.9" cy="113.5" r="29.8"/><path class="st1" d="M137.8 62.5c4.1 0 7.5-3.4 7.5-7.5V40.7c0-4.1-3.4-7.5-7.5-7.5s-7.5 3.4-7.5 7.5V55c0 4.1 3.4 7.5 7.5 7.5zM130.3 171.9v14.3c0 4.1 3.4 7.5 7.5 7.5s7.5-3.4 7.5-7.5v-14.3c0-4.1-3.4-7.5-7.5-7.5s-7.5 3.4-7.5 7.5zM91.2 77.4c2.9 2.9 7.7 2.9 10.6 0 2.9-2.9 2.9-7.7 0-10.6L91.7 56.7c-2.9-2.9-7.7-2.9-10.6 0-2.9 2.9-2.9 7.7 0 10.6l10.1 10.1zM184.5 149.5c-2.9-2.9-7.7-2.9-10.6 0-2.9 2.9-2.9 7.7 0 10.6l10.1 10.1c2.9 2.9 7.7 2.9 10.6 0s2.9-7.7 0-10.6l-10.1-10.1zM65.1 120.9h14.3c4.1 0 7.5-3.4 7.5-7.5s-3.4-7.5-7.5-7.5H65.1c-4.1 0-7.5 3.4-7.5 7.5s3.4 7.5 7.5 7.5zM188.8 113.4c0 4.1 3.4 7.5 7.5 7.5h14.3c4.1 0 7.5-3.4 7.5-7.5s-3.4-7.5-7.5-7.5h-14.3c-4.2 0-7.5 3.4-7.5 7.5zM91.2 149.5l-10.1 10.1c-4.7 4.7-1.3 12.8 5.3 12.8 1.9 0 3.8-.7 5.3-2.2l10.1-10.1c2.9-2.9 2.9-7.7 0-10.6-2.9-2.9-7.7-2.9-10.6 0zM184.5 77.4l10.1-10.1c2.9-2.9 2.9-7.7 0-10.6-2.9-2.9-7.7-2.9-10.6 0l-10.1 10.1c-2.9 2.9-2.9 7.7 0 10.6 2.9 2.9 7.6 2.9 10.6 0zM512 453.9c-.3-8.1-4.9-15.3-11.5-19.4-4.7-2.9-10.3-4.3-16.3-3.3-.8-1.6-1-1.9-1-1.9v.1c-.1-.2-1.8-3.4-13.8-27.5-11.3-22.7-32-64-69.4-138.8L364.5 192c-7-14.1-27.2-14.1-34.2 0-3.2 6.4-24 47.9-28.3 56.6l-42.5-85.1c-3.2-6.4-9.4-9.6-15.5-9.6-6.2 0-12.4 3.2-15.5 9.6l-34.9 69.7c-1.5 3-5.7 3-7.2 0-6.4-12.8-24.7-12.8-31.1 0l-56.5 113-1.5-3.1c-4.7-9.4-18.2-9.3-22.8 0L14.1 463.8H7.5c-4.1 0-7.5 3.4-7.5 7.5s3.4 7.5 7.5 7.5h377.7c4.1 0 7.5-3.4 7.5-7.5s-3.4-7.5-7.5-7.5h-83.1c-3.4 0-6-2.7-6-6.1 0-3.3 3.1-6.3 6.7-5.9 5.7.7 10.8-3.1 11.9-8.7 1.3-6.7 7.2-11.5 14-11.5 5 0 9.8 2.7 12.4 7.2 2.5 4.3 7.5 6.5 12.2 5.5 1.1-.2 3.6-1.3 7-.2 8.8 2.8 10.4-5 18.9-3.4 5.9 1.2 11.6-2.8 12.3-8.7 1.5-11.6 11.5-20.3 23.2-20.3 8.4 0 16.2 4.6 20.4 11.9 2.4 4.3 7 6.7 11.7 6.5 1.1 0 2.2-.2 3.2-.6 8.9-2.9 18.1 1.9 21.5 10.1 2.3 5.5 8.3 8.4 14 6.7 5.6-1.7 11.2 2.6 11.4 8.2.2 5.1-3.9 9.3-8.9 9.3h-67.8c-4.1 0-7.5 3.4-7.5 7.5s3.4 7.5 7.5 7.5H488c13.7 0 24.5-11.3 24-24.9zM343.7 198.8c1.5-3 5.9-3 7.4 0 2.9 5.8 24.8 49.5 33.2 66.3l-26.4 27c-.6.6-1.7.7-2.4.1l-16-13.8c-7.2-6.2-18-5.2-23.9 2.1l-8.6 10.6c-.6.8-1.8.9-2.5.2l-4.7-4.4c29.5-59.4 28.7-57.8 43.9-88.1zm-257.8 155l20.5 40.9-10.9 11.1-12-10.3c-5.3-4.6-12.9-4.5-18.1-.8l20.5-40.9zm-55 110L52.8 420c10.8 2.7 15.6-5.8 21.2-12.8l12 10.3c5.8 5 14.6 4.6 19.9-.9l7.5-7.7 27.4 54.8H30.9zm126.7 0l-50.4-100.9 61.4-122.8c.9-1.8 3.4-1.8 4.3 0 7 14 27 14 34 0l34.9-69.7c.9-1.8 3.4-1.8 4.3 0l47.6 95.1c-4.3 8.5-91 181.9-99.2 198.3h-36.9zm296.9-50.1c-2.4.1-4.9.4-7.2 1-3.3-5.3-7.8-9.6-13-12.7-5.8-3.5-12.6-5.3-19.5-5.3-7.1 0-13.7 1.9-19.5 5.3-8.6 5.1-15.1 13.4-17.7 23.4-4.9-.1-9.9 1.2-14.3 3.8-3.5-.9-7.1-1-10.7-.3-5.4-7.7-14.4-12.4-23.9-12.4-12.8 0-24 8.3-27.8 20.3-10.8.6-19.6 9.6-19.7 20.7v.3c0 2 .3 4.2.9 6h-70.8L292.6 301l1.5 1.4c3.2 3 7.3 4.4 11.3 4.4 4.9 0 9.7-2.1 13-6.2L327 290c.6-.8 1.7-.9 2.5-.2l16 13.8c6.7 5.7 16.7 5.3 22.9-1l22.8-23.3L452.6 402l5.9 11.8c-1.3-.1-2.6-.1-4-.1zM137.8 158.3c16.6 0 31.8-9.1 39.6-23.9 1.9-3.7.6-8.2-3.1-10.1s-8.2-.6-10.1 3.1c-5.2 9.8-15.3 15.9-26.4 15.9-16.5 0-29.9-13.4-29.9-29.9s13.4-29.9 29.9-29.9c11.1 0 21.2 6.1 26.4 15.9 1.9 3.7 6.5 5 10.1 3.1 3.7-1.9 5-6.5 3.1-10.1-7.8-14.7-23-23.9-39.6-23.9-24.7 0-44.9 20.1-44.9 44.9s20.2 44.9 44.9 44.9z"/></svg>