<svg xmlns="http://www.w3.org/2000/svg" width="512" height="512" viewBox="0 0 512 512"><path d="M120 77C53.832 77 0 130.832 0 197c0 31.641 12.208 61.497 34.374 84.069 21.458 21.851 49.904 34.501 80.375 35.812.144 1.904.251 4.528.251 8.119 0 14.712-11.188 59.665-18.241 84.544L89.542 435h87.584l5.867-9.453C185.32 421.797 240 332.148 240 197c0-66.168-53.832-120-120-120zm34.189 318h-12.13C147.806 372.416 155 340.959 155 325c0-12.664-.94-22.838-5.531-31.33-4.089-7.564-12.641-16.573-30.183-16.669l-.873-.022C75.176 276.141 40 240.263 40 197c0-44.112 35.888-80 80-80s80 35.888 80 80c0 99.32-32.836 172.834-45.811 198zM392 77c-66.168 0-120 53.832-120 120 0 31.641 12.208 61.497 34.374 84.069 21.458 21.851 49.904 34.501 80.375 35.812.144 1.904.251 4.528.251 8.119 0 14.712-11.188 59.665-18.241 84.544L361.542 435h87.584l5.867-9.453C457.32 421.797 512 332.148 512 197c0-66.168-53.832-120-120-120zm34.189 318h-12.13C419.806 372.416 427 340.959 427 325c0-12.664-.94-22.838-5.531-31.33-4.089-7.564-12.641-16.573-30.183-16.669l-.873-.022C347.176 276.141 312 240.263 312 197c0-44.112 35.888-80 80-80s80 35.888 80 80c0 99.32-32.836 172.834-45.811 198z" fill="#f2f2f2" data-original="#000000" xmlns="http://www.w3.org/2000/svg"/></svg>