<svg id="Layer_1" xmlns="http://www.w3.org/2000/svg" viewBox="0 0 512 512"><style>.st0{fill:#ffbe00}.st1{fill:#212738}</style><path class="st0" d="M360.9 382.5l-66.4 66.8c-1.5 1.5-3.5 2.2-5.4 2.2-2 0-3.9-.8-5.4-2.3l-66.4-66.8c-16.3-16.3-19.4-41.6-7.6-61.3 2.1-3.6 4.7-6.9 7.7-9.9 19.6-19.4 51.1-19.3 70.5.2l1.1 1.1 1.2-1.2c16.2-16.3 41.4-19.4 61.1-7.5 3.4 2.1 6.6 4.6 9.4 7.4 19.7 19.7 19.8 51.6.2 71.3z"/><path class="st1" d="M369.4 305c-3.2-3.1-6.7-5.9-10.5-8.2-21.8-13.2-49.9-9.8-67.9 8.4l-1.3 1.3-1.2-1.3c-21.6-21.7-56.7-21.9-78.4-.3-3.3 3.3-6.2 7-8.6 11-13.1 22-9.6 50.1 8.5 68.2l73.8 74.2c1.7 1.7 3.9 2.5 6.1 2.5 2.2 0 4.3-.8 6-2.5l73.8-74.2c21.8-21.9 21.6-57.4-.3-79.1zm-6.1 59.8c-1.6 2.7-3.5 5.1-5.7 7.3l-67.8 68.2L222 372c-12.6-12.6-15-32.2-5.8-47.5 10.9-18.2 34.4-24.2 52.6-13.3 2.8 1.6 5.3 3.6 7.6 5.9l7.3 7.3c3.3 3.3 8.7 3.4 12.1 0l7.3-7.4c12.4-12.6 31.9-15 47-5.8 18.4 11.3 24.3 35.2 13.2 53.6z"/><path class="st1" d="M503.5 213.3c-36-.1-69.9 17.4-90.5 46.9-37.8-20.1-80-30.4-122.8-29.9-47.3-.7-93.8 12.1-134.2 36.8l-5.3-18.4c-8.8-31-7.2-64 4.8-93.9l3.9-9.8h88.1c3.5 0 6.6-2.1 7.9-5.4l34.1-85.3c1.8-4.4-.4-9.3-4.8-11.1-.1 0-.2-.1-.3-.1L190.7 9c-3-1.1-6.3-.4-8.7 1.7L88.1 96.1c-1.1 1-2 2.3-2.4 3.8L5.1 359.3C1.7 369 0 379.3 0 389.6v62.6c0 3.7 2.3 6.9 5.8 8.1C40.6 472 77 477.9 113.7 477.9h61.7c35.8 17.3 75 26 114.7 25.6 74.4 0 142.3-29.2 175.3-75 12.2 4.5 25 6.8 38 6.7 4.7 0 8.5-3.8 8.5-8.5V221.9c.1-4.7-3.7-8.6-8.4-8.6zm-8.6 204.4c-10.1-.9-19.9-3.5-29.2-7.6-3.8-1.7-8.4-.3-10.6 3.2-28.3 44.4-93.1 73-165 73-37.7.5-74.9-8-108.8-24.7-1.2-.6-2.5-.9-3.9-.9h-63.8c-32.8 0-65.4-5-96.6-14.7v-56.4c0-8.5 1.5-17 4.3-25l80-257.4 88.3-80.3 47.9 17.4-21.3 49.6h-20V111h25.6c3.4 0 6.5-2 7.8-5.2l23.9-55.7 16.8 6.1-28.6 71.8h-88.1c-3.5 0-6.6 2.1-7.9 5.4l-6.1 15.2c-13.4 33.4-15.3 70.3-5.4 105l8.5 29.7c-1.7 2.1-3.3 4.3-4.8 6.5-6.3 9.3-10.6 19.8-12.8 30.8l-5.5 27.6c-1 4.6 2 9.1 6.6 10.1.5.1 1.1.2 1.6.2h.1c4 0 7.5-2.9 8.3-6.8l5.5-27.7c3.6-17.9 14.1-33.6 29.3-43.8l12.7-8.5c.5-.4 1-.9 1.4-1.4 32.8-15.3 68.6-23.1 104.8-22.8 42.5-.7 84.3 10.3 121.1 31.6 4 2.5 9.3 1.2 11.7-2.8v-.1c15.3-25.8 42.1-42.7 72-45.4v186.9z"/></svg>