<svg id="Layer_1" xmlns="http://www.w3.org/2000/svg" viewBox="0 0 512 512"><style>.st0{fill:#ffbe00}.st1{fill:#212738}</style><path class="st0" d="M383.6 90.7h111.6V152H383.6zM16.8 89.3h111.6v62.6H16.8z"/><path class="st1" d="M159 106.4c4.2 0 7.6-3.4 7.6-7.6v-10c0-4.2-3.4-7.6-7.6-7.6s-7.6 3.4-7.6 7.6v10c0 4.2 3.4 7.6 7.6 7.6z"/><path class="st1" d="M196.4 169.1c-3.1-9-5.7-13.2-6-13.6-1.4-2.2-3.8-3.5-6.4-3.5h-20.8c-2.5 0-4.8 1.2-6.3 3.3l-7.7 11.2c-1.3 1.9-3.5 3.1-5.8 3.1-2.2 0-4.1-.9-5.5-2.6 3.3-.8 5.8-3.8 5.8-7.4v-9c13.3-.1 25.5-4.8 35.2-12.6h33.6c4.2 0 7.6-3.4 7.6-7.6V76.8C220 34.5 185.5 0 143.1 0 101.2 0 67 33.7 66.3 75.5H45.6v-4.3c0-4.2-3.4-7.6-7.6-7.6s-7.6 3.4-7.6 7.6v4.3H9.2c-4.2 0-7.6 3.4-7.6 7.6v76.5C1.6 180 5.5 197 13.1 210c7.2 12.3 17.3 20.3 29.3 23.2 3.2.8 6.3 1.1 9.5 1.1 9.8 0 19.5-3.6 27.9-10.1-.8 9.4-1.2 19.8-1.3 31.5-1.7 4.6-7.3 20.1-12.2 42.5-.9 4.1 1.7 8.2 5.8 9.1 4.1.9 8.2-1.7 9.1-5.8 3.9-17.7 8.3-31.1 10.6-37.4 39.8-5.4 63.5-5.4 103.4 0 5.1 14.4 21.2 65.2 18.1 121.8H73.5c-1-17.9-.1-36.8 2.5-56.2.6-4.2-2.3-8-6.5-8.6-4.2-.6-8 2.3-8.6 6.5-3.1 23-3.8 45.4-2.1 66.5.3 3.9 3.6 7 7.6 7h26.2c.5 18.6 2.1 67.2 6.4 95.8h-2.7c-4.2 0-7.6 3.4-7.6 7.6s3.4 7.6 7.6 7.6H127c4.1 0 7.4-3.3 7.6-7.3 0-.4 1.4-40.2 8.7-95 7.3 54.7 8.7 94.6 8.7 95 .1 4.1 3.5 7.3 7.6 7.3h30.6c4.2 0 7.6-3.4 7.6-7.6s-3.4-7.6-7.6-7.6h-2.7c4.4-28.6 6-77.1 6.4-95.8h26.2c4 0 7.3-3 7.6-7 3.2-38.3-2.5-74.2-7.8-97.6-3-13.2-6.2-23.9-8.3-30.6-1.7-5.2-2.8-8.3-3.5-10.3-.1-22.9-1.8-41.3-4.3-55.8 5.1 8.1 10.3 18.7 14.9 31.5 11.1 30.9 15.3 65.3 11.8 96.8-.5 4.2 2.5 7.9 6.7 8.4h.9c3.8 0 7.1-2.9 7.5-6.8 3.8-33.8-.7-70.6-12.6-103.6-9.7-27.2-23.6-48.7-36.6-57zM129.1 401c-6.2 44.9-8.6 80.9-9.4 95.8h-5.3c-4.4-26.5-6.1-76.6-6.6-95.8h21.3zm43.1 95.8h-5.3c-.8-14.9-3.2-50.9-9.4-95.8h21.3c-.5 19.2-2.2 69.3-6.6 95.8zM136 75.5h-34.6v-2.8h83.5v20.9c0 22.9-18.5 41.5-41.2 41.7V83.1c-.1-4.2-3.5-7.6-7.7-7.6zm7.2-60.3c34 0 61.6 27.6 61.6 61.6v45.9h-12.7c5.1-8.5 8-18.5 8-29.1V65.1c0-4.2-3.4-7.6-7.6-7.6H93.8c-2 0-3.9.8-5.4 2.2s-2.2 3.4-2.2 5.4v10.4h-4.7c.8-33.4 28.1-60.3 61.7-60.3zM16.8 90.7h111.6V152H16.8V90.7zm66.5 105.5C74.7 213 60 221.7 45.9 218.3c-16.5-4-27.3-23.3-28.9-51.2h74c-2.4 6.6-5.3 16.1-7.7 29.1.1 0 0 0 0 0zm10.5 52.2c1-47.8 9.8-72.6 13.6-81.2h12.1l5.5 7.9c4.2 6 11 9.6 18.3 9.6s14.2-3.6 18.3-9.6l5.5-7.9h12.2c3.8 8.5 12.6 32.9 13.6 81.2-37.2-4.9-62-4.9-99.1 0zM350.6 73.5c-4.2 0-7.6 3.4-7.6 7.6v10c0 4.2 3.4 7.6 7.6 7.6s7.6-3.4 7.6-7.6v-10c0-4.2-3.4-7.6-7.6-7.6z"/><path class="st1" d="M502.8 75.5h-21.2v-4.3c0-4.2-3.4-7.6-7.6-7.6-4.2 0-7.6 3.4-7.6 7.6v4.3h-13.9c-1.9-11.8-12.1-20.8-24.4-20.8h-.3c-2.7-12.5-9.2-24-18.8-32.8C397.3 11 382.1 5.1 366.1 5.1s-31.2 6-42.9 16.8c-9.5 8.8-16 20.3-18.8 32.8h-.4c-13.6 0-24.7 11.1-24.7 24.7s11.1 24.7 24.7 24.7h1.1c7.4 27 32.2 46.5 60.9 46.5h2.2v9.1c0 2.9 1.6 5.4 3.9 6.6l-6 8.7-13.6-19.7c-1.4-2.1-3.8-3.3-6.3-3.3h-20.8c-2.8 0-5.4 1.6-6.7 4.1-.3.6-2.6 5.1-5.8 12.8-38.2 19-75.9 94.4-52 166.4 1.1 3.2 4 5.2 7.2 5.2.8 0 1.6-.1 2.4-.4 4-1.3 6.1-5.6 4.8-9.6-18.5-55.9 4-110.2 28.6-135.8-6.6 22.1-12.8 52.5-12.8 87.7 0 .4 0 36.9 2.1 82.3 2.6 55.7 6.9 100 13 132h-7.5c-4.2 0-7.6 3.4-7.6 7.6s3.4 7.6 7.6 7.6h35.7c4.1 0 7.5-3.2 7.6-7.3 0-.8 3.1-83.4 22.3-175.3h3.5c19.3 91.9 22.3 174.5 22.3 175.3.1 4.1 3.5 7.3 7.6 7.3h35.7c4.2 0 7.6-3.4 7.6-7.6s-3.4-7.6-7.6-7.6h-7.5c6.1-32 10.5-76.3 13-132 2.1-45.5 2.1-82 2.1-82.3 0-20.3-2.1-39.1-5.2-55.5 7.4 4.8 15.7 7.3 24 7.3 3.2 0 6.4-.4 9.5-1.1 12-2.9 22.1-10.9 29.3-23.2 7.6-13 11.5-30 11.5-50.4V83.1c.3-4.2-3.1-7.6-7.3-7.6zM333.6 33c8.9-8.2 20.4-12.8 32.5-12.8 22.2 0 41.4 15.6 46.5 36.6-39.5 2.4-57.8-18.3-58.6-19.2-1.6-1.9-4.1-2.9-6.5-2.7-2.5.2-4.7 1.7-5.9 3.9-5.2 9.2-12 14.5-21.6 16.4 2.4-8.4 7-16.1 13.6-22.2zm32.5 102.3c-23.8 0-44.2-17.8-47.4-41.4-.3-2.4-1.7-4.5-3.8-5.6-2.1-1.2-4.6-1.3-6.8-.3-1.3.6-2.6.9-3.9.9-5.2 0-9.5-4.3-9.5-9.5s4.3-9.5 9.5-9.5c1.3 0 2.5.3 3.7.8.9.4 1.9.6 2.9.6h.1c16.8 0 29.5-5.6 38.8-17.2 9.4 7.4 28 18.2 56.7 18.2 5 0 10.4-.3 16.1-1.1h.1c.7-.1 1.3-.3 2-.5 1.2-.5 2.4-.8 3.7-.8 3.8 0 7.1 2.3 8.6 5.6H376c-4.2 0-7.6 3.4-7.6 7.6v52.2h-2.3zm-35.6 31.9h12l17.6 25.4c1.4 2.1 3.8 3.3 6.3 3.3s4.8-1.2 6.3-3.3l17.6-25.4h12c1 2.2 2.3 5.3 3.9 9.1 7 17.8 18.6 53.3 20 97.4-39.6-4.9-79.7-4.9-119.3 0 1.4-53 17.9-93.9 23.6-106.5zm74.7 329.6c-1.2-23-6.4-97-23.6-176.7-.8-3.5-3.9-6-7.4-6h-15.9c-3.6 0-6.7 2.5-7.4 6-17.2 79.7-22.4 153.6-23.6 176.7h-5.4c-13.3-67.2-15.1-179.4-15.4-207.7 39.7-5.1 79.8-5.1 119.5 0-.2 28.3-2.1 140.5-15.4 207.7h-5.4zm60.9-278.5c-13.9 3.4-28.4-5.1-37.1-21.5-3.1-10.7-6.3-19.6-8.9-26.1-.5-1.3-1-2.4-1.4-3.5h27.7c4.2 0 7.6-3.4 7.6-7.6 0-4.2-3.4-7.6-7.6-7.6h-62.8V90.7h111.6V152h-18.4c-4.2 0-7.6 3.4-7.6 7.6 0 4.2 3.4 7.6 7.6 7.6H495c-1.7 27.8-12.4 47.1-28.9 51.1z"/><path class="st1" d="M439.4 95.9c-14 0-25.4 11.4-25.4 25.4s11.4 25.4 25.4 25.4c14 0 25.4-11.4 25.4-25.4s-11.4-25.4-25.4-25.4zm0 35.6c-5.6 0-10.2-4.6-10.2-10.2s4.6-10.2 10.2-10.2 10.2 4.6 10.2 10.2-4.6 10.2-10.2 10.2zM471 145.1c6.5 2.7 13-4.6 9.5-10.8-3.3-5.9-12.3-4.6-14 1.9-.8 3.7 1.1 7.5 4.5 8.9zM72.6 95.9c-14 0-25.4 11.4-25.4 25.4s11.4 25.4 25.4 25.4S98 135.3 98 121.3 86.6 95.9 72.6 95.9zm0 35.6c-5.6 0-10.2-4.6-10.2-10.2s4.6-10.2 10.2-10.2 10.2 4.6 10.2 10.2-4.6 10.2-10.2 10.2zM45.1 135.2c-2.6-6.2-11.7-6.1-14.1.2-1.1 2.9-.3 6.3 2 8.4 2.4 2.1 5.9 2.6 8.7 1 3.4-1.9 4.8-6 3.4-9.6z"/></svg>